PathFileType	4	(X/Y/Z)	C:\Users\WrightLab\Desktop\Jo\P1.2Trial2.trc
DataRate	CameraRate	NumFrames	NumMarkers	Units	OrigDataRate	OrigDataStartFrame	OrigNumFrames
100.00	100.00	       93	19	mm	100.00	1	       838
Frame#	Time	Headset_Front			Headset_Back			Headset_Left			Headset_Right			Left_Shoulder			Right_Shoulder			Sternum			C7			Left Elbow			Right Elbow			Left Wrist			Right Wrist			Left ASIS			Right ASIS			S2			Left Knee			Right Knee			Left Ankle			Right Ankle			
		X1	Y1	Z1	X2	Y2	Z2	X3	Y3	Z3	X4	Y4	Z4	X5	Y5	Z5	X6	Y6	Z6	X7	Y7	Z7	X8	Y8	Z8	X9	Y9	Z9	X10	Y10	Z10	X11	Y11	Z11	X12	Y12	Z12	X13	Y13	Z13	X14	Y14	Z14	X15	Y15	Z15	X16	Y16	Z16	X17	Y17	Z17	X18	Y18	Z18	X19	Y19	Z19	

1	0.000																																		-197.78583	1062.43994	2062.93872																						
2	0.010																																		-198.02869	1061.20129	2062.09155																						
3	0.020																																		-197.97809	1059.50867	2063.89453																						
4	0.030																																		-198.04195	1057.97754	2063.45679																						
5	0.040																																		-197.97015	1056.28296	2063.56104																						
6	0.050																																		-198.05559	1054.53357	2064.69507																						
7	0.060																																		-197.99823	1052.54065	2066.11279																						
8	0.070																																		-198.19385	1050.81323	2066.17236																						
9	0.080																																		-198.11862	1048.86096	2066.88843																						
10	0.090																																		-198.06218	1047.19116	2067.59106																						
11	0.100																																		-198.17563	1045.10022	2068.57813																						
12	0.110																																		-198.24292	1043.06665	2069.41699																						
13	0.120																																		-198.09663	1041.56641	2069.91211																						
14	0.130																																		-197.92938	1039.28003	2071.31128																						
15	0.140																																		-197.88080	1037.46631	2071.74829																						
16	0.150																																		-198.00505	1035.80127	2072.39966																						
17	0.160																																		-197.76166	1033.59644	2074.12061																						
18	0.170																																		-197.80338	1031.83850	2074.27417																						
19	0.180																																		-197.68002	1030.24011	2075.36011																						
20	0.190																																		-197.59967	1028.63318	2075.75000																						
21	0.200																																		-197.65254	1026.81836	2076.63989																						
22	0.210																																		-197.48015	1024.89587	2078.20557																						
23	0.220																																		-197.27295	1023.65314	2078.96045																						
24	0.230																																		-197.28767	1021.75903	2079.95728																						
25	0.240																																		-197.24559	1020.16827	2079.56226																						
26	0.250																																		-197.18259	1018.44714	2080.84326																						
27	0.260																																		-196.97050	1016.83264	2080.33545																						
28	0.270																																		-196.70847	1014.70905	2081.32935																						
29	0.280																																		-196.70436	1013.19110	2080.29785																						
30	0.290																																		-196.59264	1010.95648	2082.13257																						
31	0.300																																		-196.49416	1008.90430	2082.29614																						
32	0.310																																		-196.26535	1006.94049	2082.94824																						
33	0.320																												-172.67686	1072.15100	2338.75439				-196.60062	1004.56122	2083.27490																						
34	0.330																												-172.98964	1071.69214	2338.86938				-196.38916	1002.47174	2082.78711																						
35	0.340																												-173.31953	1071.35217	2338.77539				-196.29126	1000.08240	2084.22437																						
36	0.350																												-173.60727	1070.94580	2338.58521				-196.50740	997.52460	2084.09888																						
37	0.360																												-174.05029	1070.64380	2338.22437				-196.90221	995.45636	2083.73535																						
38	0.370																												-175.11234	1070.31592	2338.22852				-197.08063	992.83478	2084.67798																						
39	0.380																												-175.80231	1069.10120	2337.35645				-197.78377	990.35913	2084.70313																						
40	0.390																												-176.83482	1068.72791	2337.20190				-198.28996	988.37018	2084.78027																						
41	0.400																												-177.44093	1067.98645	2336.68481				-198.93887	985.50098	2085.04321																						
42	0.410																												-178.29260	1067.14307	2336.24780				-199.85356	984.05109	2084.10327																						
43	0.420																												-179.48775	1067.01636	2335.61279				-200.50818	981.40741	2085.29346																						
44	0.430																												-180.69786	1066.64697	2335.32446				-201.57161	979.66815	2084.87573																						
45	0.440																												-181.53619	1066.26123	2334.28857				-202.67741	977.88086	2084.68262																						
46	0.450																												-182.38092	1065.78687	2333.49121				-203.58134	975.90814	2084.30640																						
47	0.460																												-183.02536	1064.85645	2331.79150				-204.46545	973.95746	2084.60864																						
48	0.470																												-184.21027	1064.69971	2331.45996				-205.36026	972.79498	2083.47949																						
49	0.480																												-184.92561	1064.52490	2330.06860				-206.55800	971.47089	2081.92578																						
50	0.490																												-186.32878	1064.41943	2329.54224				-208.03218	969.72333	2081.94556																						
51	0.500																												-187.17093	1063.69666	2328.08105				-209.25948	968.62048	2081.84521																						
52	0.510																												-187.87163	1063.22559	2326.30981				-210.22417	967.56409	2079.84399																						
53	0.520																												-189.01439	1062.91565	2324.90454				-211.36043	966.09851	2078.76538																						
54	0.530																												-190.29047	1062.76465	2323.56274				-212.57481	964.83868	2077.19214																						
55	0.540																												-191.38077	1062.10742	2322.06714				-214.21912	963.74872	2077.43945																						
56	0.550																												-193.09596	1062.14636	2320.74463				-215.43707	962.51740	2076.25195																						
57	0.560																												-193.92534	1061.07275	2318.51831				-216.47733	961.26044	2075.00977																						
58	0.570																												-195.67215	1061.17932	2317.02710				-218.12123	960.07135	2072.95654																						
59	0.580																												-197.14456	1060.90198	2315.07373				-220.05031	959.43860	2071.27563																						
60	0.590																												-198.52194	1060.13806	2312.81787				-221.69917	958.31512	2069.50317																						
61	0.600																												-199.98386	1059.70313	2310.51074				-223.10730	957.14655	2067.12988																						
62	0.610																												-201.48486	1058.97046	2308.09937				-225.45517	956.09442	2065.26953																						
63	0.620																												-203.43318	1059.09473	2305.66064				-227.36702	955.26373	2063.63477																						
64	0.630																												-204.79074	1058.60242	2302.71826				-229.07466	954.07867	2061.09180																						
65	0.640																												-206.19308	1057.84460	2299.45435				-231.84839	953.08057	2058.73022																						
66	0.650																												-207.79852	1058.34045	2296.40088				-233.58588	952.29449	2056.46924																						
67	0.660																												-209.95679	1058.32959	2294.24512				-236.11522	951.63293	2053.38477																						
68	0.670																												-211.31323	1058.50891	2290.82227				-238.23035	950.71539	2050.29468																						
69	0.680																												-212.55034	1058.18982	2287.22095				-240.63560	949.99829	2047.09119																						
70	0.690																												-214.10092	1058.45715	2283.45435				-242.83430	949.35773	2045.90796																						
71	0.700																												-215.08757	1058.58289	2280.30957				-245.07776	948.68701	2042.17236																						
72	0.710																												-216.68692	1058.93823	2276.81421				-247.33727	948.10663	2037.39551																						
73	0.720																												-217.44553	1059.02820	2271.98950				-249.26666	947.46332	2035.69604																						
74	0.730																												-218.46817	1059.00378	2268.89502				-251.60674	947.05219	2031.27234																						
75	0.740																												-219.69966	1059.21021	2264.55371				-253.48438	946.73645	2026.96570																						
76	0.750																												-220.27127	1059.18115	2259.38184				-255.37624	945.92072	2024.16357																						
77	0.760																												-221.01073	1058.74231	2255.44043				-257.71765	945.47430	2019.42175																						
78	0.770																												-222.25459	1058.70459	2250.67041				-259.29251	944.93225	2015.83618																						
79	0.780																												-223.14256	1058.90759	2246.27417				-261.01105	944.34955	2010.85535																						
80	0.790																												-223.93263	1058.50635	2241.98389				-262.90753	943.44519	2006.52173																						
81	0.800																												-225.11832	1058.18713	2236.42407				-264.42538	942.90057	2002.15857																						
82	0.810																												-226.07402	1057.83569	2231.59106				-266.05237	942.24792	1996.72583																						
83	0.820																												-226.92886	1057.42383	2227.13550				-267.97766	940.98120	1993.11743																						
84	0.830																												-227.76170	1056.55139	2221.30298				-269.53958	940.40186	1987.43750																						
85	0.840																												-228.60503	1055.62610	2214.99683				-271.02994	939.39355	1983.20471																						
86	0.850																												-229.73868	1054.57104	2210.38013				-272.71988	938.45349	1977.79456																						
87	0.860																												-231.13972	1054.39502	2205.64331				-274.60696	937.40015	1972.18884																						
88	0.870																												-232.16051	1053.18420	2200.40869				-275.96991	936.20410	1967.89063																						
89	0.880																												-233.63426	1051.87952	2194.36279				-277.74170	935.14099	1962.04260																						
90	0.890																												-235.32054	1051.05042	2189.46094				-279.09653	933.24805	1958.92737																						
91	0.900																												-236.29216	1049.66553	2183.43433				-280.76709	931.33801	1952.82251																			-435.05832	178.85567	1982.77356	
92	0.910																												-237.91672	1048.99695	2178.82666				-282.77859	929.67212	1947.14368																			-440.91705	181.06903	1970.35083	
93	0.920																												-239.08887	1047.75830	2172.98877				-284.79886	928.28284	1940.92090																			-446.85794	183.54190	1958.07654	
